<?xml version="1.0" encoding="UTF-8"?>
<!--Generator: Apple Native CoreSVG 175.5-->
<!DOCTYPE svg
PUBLIC "-//W3C//DTD SVG 1.1//EN"
       "http://www.w3.org/Graphics/SVG/1.1/DTD/svg11.dtd">
<svg version="1.1" xmlns="http://www.w3.org/2000/svg" xmlns:xlink="http://www.w3.org/1999/xlink" width="23.0273" height="17.9785">
 <g>
  <rect height="17.9785" opacity="0" width="23.0273" x="0" y="0"/>
  <path d="M18.0176 4.81445C18.6914 4.79492 19.2578 4.23828 19.2578 3.56445C19.2578 2.88086 18.6914 2.30469 18.0176 2.30469C17.3535 2.30469 16.7773 2.88086 16.7773 3.56445C16.7773 4.23828 17.3535 4.82422 18.0176 4.81445ZM18.0176 10.2246C18.6914 10.2051 19.2578 9.64844 19.2578 8.97461C19.2578 8.29102 18.6914 7.71484 18.0176 7.71484C17.3535 7.71484 16.7773 8.29102 16.7773 8.97461C16.7773 9.64844 17.3535 10.2344 18.0176 10.2246ZM18.0176 15.6348C18.6914 15.6152 19.2578 15.0586 19.2578 14.3848C19.2578 13.7012 18.6914 13.125 18.0176 13.125C17.3535 13.125 16.7773 13.7012 16.7773 14.3848C16.7773 15.0586 17.3535 15.6445 18.0176 15.6348ZM22.1777 7.02148L22.1777 5.54688L0.878906 5.54688L0.878906 7.02148ZM22.1777 12.4512L22.1777 10.9766L0.878906 10.9766L0.878906 12.4512ZM3.06641 17.9785L19.9609 17.9785C22.0117 17.9785 23.0273 16.9727 23.0273 14.9609L23.0273 3.02734C23.0273 1.01562 22.0117 0 19.9609 0L3.06641 0C1.02539 0 0 1.01562 0 3.02734L0 14.9609C0 16.9727 1.02539 17.9785 3.06641 17.9785ZM3.08594 16.4062C2.10938 16.4062 1.57227 15.8887 1.57227 14.873L1.57227 3.11523C1.57227 2.09961 2.10938 1.57227 3.08594 1.57227L19.9414 1.57227C20.9082 1.57227 21.4551 2.09961 21.4551 3.11523L21.4551 14.873C21.4551 15.8887 20.9082 16.4062 19.9414 16.4062Z" fill="#000000" fill-opacity="0.85"/>
 </g>
</svg>
